<svg width="18" height="17" viewBox="0 0 18 17" fill="none" xmlns="http://www.w3.org/2000/svg">
<path d="M7.69418 -0.422769C8.44838 -1.05907 9.55142 -1.05907 10.3056 -0.422769L16.3806 4.70232C16.8367 5.08708 17.0999 5.65339 17.0999 6.25009V15.0727C17.0999 15.9426 16.3948 16.6477 15.5249 16.6477H12.8249C11.9551 16.6477 11.2499 15.9426 11.2499 15.0727V10.5727C11.2499 10.1999 10.9477 9.89773 10.5749 9.89773H7.4249C7.05211 9.89773 6.7499 10.1999 6.7499 10.5727V15.0727C6.7499 15.9426 6.04475 16.6477 5.1749 16.6477H2.4749C1.60505 16.6477 0.899902 15.9426 0.899902 15.0727V6.25009C0.899902 5.65339 1.16307 5.08708 1.61915 4.70232L7.69418 -0.422769Z" fill="#203864"/>
</svg>
