<svg width="20" height="20" viewBox="0 0 20 20" fill="none" xmlns="http://www.w3.org/2000/svg">
<path d="M10.3956 2.96704H0V9.47254H10.3956V2.96704Z" fill="black" fill-opacity="0.7"/>
<path d="M0 14.6154H1.5444C1.84712 13.2347 3.07912 12.1978 4.54945 12.1978C6.01978 12.1978 7.25174 13.2347 7.55451 14.6154H10.3956V10.7912H0V14.6154Z" fill="black" fill-opacity="0.7"/>
<path d="M4.5495 13.5165C3.58001 13.5165 2.79126 14.3052 2.79126 15.2747C2.79126 16.2442 3.58001 17.033 4.5495 17.033C5.519 17.033 6.30774 16.2442 6.30774 15.2747C6.30774 14.3052 5.519 13.5165 4.5495 13.5165Z" fill="black" fill-opacity="0.7"/>
<path d="M15.4506 13.5165C14.4811 13.5165 13.6924 14.3052 13.6924 15.2747C13.6924 16.2442 14.4811 17.033 15.4506 17.033C16.4201 17.033 17.2089 16.2442 17.2089 15.2747C17.2089 14.3052 16.4201 13.5165 15.4506 13.5165Z" fill="black" fill-opacity="0.7"/>
<path d="M15.6045 2.96704H11.7144V14.6154H12.4456C12.7483 13.2346 13.9803 12.1978 15.4506 12.1978C16.9209 12.1978 18.1529 13.2346 18.4557 14.6154H20.0001V8.5055L15.6045 2.96704Z" fill="black" fill-opacity="0.7"/>
</svg>
