<svg width="14" height="18" viewBox="0 0 14 18" fill="none" xmlns="http://www.w3.org/2000/svg">
<path d="M11.3701 15.6667H4.41675C3.26758 15.6667 2.33341 14.7325 2.33341 13.5833C2.33341 12.4342 3.26758 11.5 4.41675 11.5H10.2501C11.8584 11.5 13.1667 10.1917 13.1667 8.58332C13.1667 6.97499 11.8584 5.66666 10.2501 5.66666H6.19925C5.89321 6.26656 5.51423 6.82635 5.07091 7.33332H10.2501C10.9392 7.33332 11.5001 7.89416 11.5001 8.58332C11.5001 9.27249 10.9392 9.83332 10.2501 9.83332H4.41675C2.34925 9.83332 0.666748 11.5158 0.666748 13.5833C0.666748 15.6508 2.34925 17.3333 4.41675 17.3333H12.4109C12.002 16.819 11.6528 16.2598 11.3701 15.6667ZM3.16675 0.666656C1.78841 0.666656 0.666748 1.78832 0.666748 3.16666C0.666748 5.82332 3.16675 7.33332 3.16675 7.33332C3.16675 7.33332 5.66675 5.82249 5.66675 3.16666C5.66675 1.78832 4.54508 0.666656 3.16675 0.666656ZM3.16675 4.41666C3.00254 4.4166 2.83995 4.3842 2.68827 4.32131C2.53658 4.25842 2.39877 4.16627 2.28269 4.05012C2.16662 3.93397 2.07456 3.7961 2.01177 3.64437C1.94898 3.49264 1.91669 3.33003 1.91675 3.16582C1.9168 3.00162 1.9492 2.83903 2.01209 2.68734C2.07498 2.53565 2.16713 2.39784 2.28328 2.28177C2.39943 2.16569 2.53731 2.07363 2.68904 2.01085C2.84076 1.94806 3.00337 1.91577 3.16758 1.91582C3.49921 1.91593 3.81722 2.04778 4.05164 2.28236C4.28606 2.51693 4.41769 2.83503 4.41758 3.16666C4.41747 3.49829 4.28562 3.81629 4.05105 4.05071C3.81647 4.28513 3.49838 4.41677 3.16675 4.41666Z" fill="black" fill-opacity="0.7"/>
</svg>
